%TF.GenerationSoftware,KiCad,Pcbnew,(6.0.0)*%
%TF.CreationDate,2022-07-31T16:03:01+12:00*%
%TF.ProjectId,MOTOR_TERMINAL_BREAKOUT_22,4d4f544f-525f-4544-9552-4d494e414c5f,0A*%
%TF.SameCoordinates,Original*%
%TF.FileFunction,Copper,L2,Bot*%
%TF.FilePolarity,Positive*%
%FSLAX46Y46*%
G04 Gerber Fmt 4.6, Leading zero omitted, Abs format (unit mm)*
G04 Created by KiCad (PCBNEW (6.0.0)) date 2022-07-31 16:03:01*
%MOMM*%
%LPD*%
G01*
G04 APERTURE LIST*
%TA.AperFunction,ComponentPad*%
%ADD10C,4.000000*%
%TD*%
%TA.AperFunction,ComponentPad*%
%ADD11C,3.600000*%
%TD*%
%TA.AperFunction,ConnectorPad*%
%ADD12C,5.700000*%
%TD*%
%TA.AperFunction,WasherPad*%
%ADD13C,7.000000*%
%TD*%
G04 APERTURE END LIST*
D10*
%TO.P,H3,1,1*%
%TO.N,+BATT*%
X226400000Y-154320000D03*
%TD*%
%TO.P,H4,1,1*%
%TO.N,GND*%
X212400000Y-151500000D03*
%TD*%
%TO.P,H6,1,1*%
%TO.N,GND*%
X215700000Y-156440000D03*
%TD*%
%TO.P,H8,1,1*%
%TO.N,GND*%
X221500000Y-157600000D03*
%TD*%
%TO.P,H5,1,1*%
%TO.N,+BATT*%
X218500000Y-142400000D03*
%TD*%
%TO.P,H10,1,1*%
%TO.N,GND*%
X213600000Y-145680000D03*
%TD*%
%TO.P,H9,1,1*%
%TO.N,+BATT*%
X227600000Y-148500000D03*
%TD*%
%TO.P,H7,1,1*%
%TO.N,+BATT*%
X224320000Y-143560000D03*
%TD*%
D11*
%TO.P,H1,1,1*%
%TO.N,+BATT*%
X225000000Y-136000000D03*
D12*
X225000000Y-136000000D03*
%TD*%
D13*
%TO.P,H13,*%
%TO.N,*%
X220000000Y-150000000D03*
%TD*%
D11*
%TO.P,H2,1,1*%
%TO.N,GND*%
X215000000Y-136000000D03*
D12*
X215000000Y-136000000D03*
%TD*%
%TA.AperFunction,Conductor*%
%TO.N,+BATT*%
G36*
X226980182Y-132201953D02*
G01*
X226985813Y-132201963D01*
X226999642Y-132205143D01*
X227013483Y-132202011D01*
X227027147Y-132202035D01*
X227035165Y-132202305D01*
X227094838Y-132206216D01*
X227226705Y-132214859D01*
X227243045Y-132217010D01*
X227457773Y-132259722D01*
X227473694Y-132263988D01*
X227681011Y-132334363D01*
X227696237Y-132340670D01*
X227892592Y-132437501D01*
X227906866Y-132445742D01*
X228088901Y-132567374D01*
X228101977Y-132577407D01*
X228266583Y-132721763D01*
X228278237Y-132733417D01*
X228422593Y-132898023D01*
X228432626Y-132911099D01*
X228554258Y-133093134D01*
X228562499Y-133107408D01*
X228659330Y-133303763D01*
X228665637Y-133318989D01*
X228736012Y-133526306D01*
X228740278Y-133542227D01*
X228782990Y-133756955D01*
X228785141Y-133773295D01*
X228797787Y-133966230D01*
X228798057Y-133974692D01*
X228798037Y-133985812D01*
X228794857Y-133999642D01*
X228797989Y-134013482D01*
X228797980Y-134018372D01*
X228800000Y-134036448D01*
X228800000Y-144766542D01*
X228796747Y-144794989D01*
X228794858Y-144803140D01*
X228794857Y-144803856D01*
X228796441Y-144810799D01*
X228797159Y-144817217D01*
X228797849Y-144826427D01*
X228809148Y-145123183D01*
X228845528Y-145440665D01*
X228905918Y-145754466D01*
X228989972Y-146062773D01*
X229089471Y-146342099D01*
X229092344Y-146351259D01*
X229093872Y-146356871D01*
X229094956Y-146363930D01*
X229095221Y-146364595D01*
X229099256Y-146370436D01*
X229102613Y-146376702D01*
X229102183Y-146376932D01*
X229112307Y-146396540D01*
X229309396Y-146938515D01*
X229311870Y-146946047D01*
X229483520Y-147530101D01*
X229485512Y-147537760D01*
X229620090Y-148131465D01*
X229621597Y-148139242D01*
X229718567Y-148740235D01*
X229719579Y-148748067D01*
X229766138Y-149226378D01*
X229778557Y-149353957D01*
X229779077Y-149361867D01*
X229797843Y-149912003D01*
X229799830Y-149970269D01*
X229799851Y-149978197D01*
X229782297Y-150586696D01*
X229781819Y-150594610D01*
X229726029Y-151200800D01*
X229725054Y-151208669D01*
X229678038Y-151510134D01*
X229631248Y-151810145D01*
X229629782Y-151817924D01*
X229550745Y-152175312D01*
X229498332Y-152412307D01*
X229496378Y-152419991D01*
X229327792Y-153004972D01*
X229325369Y-153012483D01*
X229120329Y-153585688D01*
X229117439Y-153593032D01*
X228982140Y-153907366D01*
X228876755Y-154152200D01*
X228873393Y-154159380D01*
X228598027Y-154702283D01*
X228594220Y-154709238D01*
X228285246Y-155233761D01*
X228281008Y-155240463D01*
X227939663Y-155744501D01*
X227935013Y-155750922D01*
X227562646Y-156232490D01*
X227557602Y-156238606D01*
X227155663Y-156695824D01*
X227150262Y-156701591D01*
X226720380Y-157132604D01*
X226714615Y-157138033D01*
X226517586Y-157312161D01*
X226258452Y-157541176D01*
X226252351Y-157546235D01*
X225812960Y-157887839D01*
X225771756Y-157919873D01*
X225765369Y-157924524D01*
X225688646Y-157976777D01*
X225621084Y-157998590D01*
X225552454Y-157980414D01*
X225514691Y-157945167D01*
X222152688Y-153169534D01*
X222129830Y-153102318D01*
X222146941Y-153033414D01*
X222178570Y-152998476D01*
X222178084Y-152997876D01*
X222476941Y-152755866D01*
X222479516Y-152753781D01*
X222753781Y-152479516D01*
X222997876Y-152178084D01*
X223209125Y-151852789D01*
X223385214Y-151507194D01*
X223524214Y-151145087D01*
X223624602Y-150770433D01*
X223685278Y-150387338D01*
X223705578Y-150000000D01*
X223685278Y-149612662D01*
X223624602Y-149229567D01*
X223524214Y-148854913D01*
X223481690Y-148744133D01*
X223386398Y-148495891D01*
X223385214Y-148492806D01*
X223209125Y-148147211D01*
X222997876Y-147821916D01*
X222753781Y-147520484D01*
X222479516Y-147246219D01*
X222178084Y-147002124D01*
X221852789Y-146790875D01*
X221507194Y-146614786D01*
X221145087Y-146475786D01*
X220770433Y-146375398D01*
X220566799Y-146343146D01*
X220390586Y-146315236D01*
X220390578Y-146315235D01*
X220387338Y-146314722D01*
X220254592Y-146307765D01*
X220187611Y-146284225D01*
X220143990Y-146228210D01*
X220135207Y-146184171D01*
X220110776Y-144803848D01*
X220110321Y-144778113D01*
X220110321Y-144778112D01*
X220110000Y-144760000D01*
X220101436Y-144749723D01*
X219821598Y-144413917D01*
X219821597Y-144413916D01*
X219810000Y-144400000D01*
X218667175Y-144400000D01*
X218599054Y-144379998D01*
X218552561Y-144326342D01*
X218541506Y-144283134D01*
X218268473Y-140526579D01*
X218283485Y-140457187D01*
X218333629Y-140406927D01*
X218375616Y-140392814D01*
X218982081Y-140302664D01*
X218982082Y-140302663D01*
X219000000Y-140300000D01*
X219000000Y-140051373D01*
X219020002Y-139983252D01*
X219073658Y-139936759D01*
X219143932Y-139926655D01*
X219208512Y-139956149D01*
X219215095Y-139962278D01*
X219225708Y-139972891D01*
X219397708Y-140093326D01*
X219402686Y-140095647D01*
X219402689Y-140095649D01*
X219583026Y-140179742D01*
X219588008Y-140182065D01*
X219593316Y-140183487D01*
X219593318Y-140183488D01*
X219656433Y-140200399D01*
X219790826Y-140236410D01*
X220000000Y-140254710D01*
X220209174Y-140236410D01*
X220343567Y-140200399D01*
X220406682Y-140183488D01*
X220406684Y-140183487D01*
X220411992Y-140182065D01*
X220416974Y-140179742D01*
X220597311Y-140095649D01*
X220597314Y-140095647D01*
X220602292Y-140093326D01*
X220774292Y-139972891D01*
X220922765Y-139824418D01*
X221043200Y-139652418D01*
X221131939Y-139462118D01*
X221186284Y-139259300D01*
X221204145Y-139055143D01*
X221204627Y-139055185D01*
X221204466Y-139053759D01*
X221205142Y-139050842D01*
X221205143Y-139050126D01*
X221203154Y-139041408D01*
X221200000Y-139013393D01*
X221200000Y-134037024D01*
X221201953Y-134019818D01*
X221201963Y-134014187D01*
X221205143Y-134000358D01*
X221202011Y-133986517D01*
X221202035Y-133972853D01*
X221202305Y-133964832D01*
X221214859Y-133773295D01*
X221217010Y-133756955D01*
X221259722Y-133542227D01*
X221263988Y-133526306D01*
X221334363Y-133318989D01*
X221340670Y-133303763D01*
X221437501Y-133107408D01*
X221445742Y-133093134D01*
X221567374Y-132911099D01*
X221577407Y-132898023D01*
X221721763Y-132733417D01*
X221733417Y-132721763D01*
X221898023Y-132577407D01*
X221911099Y-132567374D01*
X222093134Y-132445742D01*
X222107408Y-132437501D01*
X222303763Y-132340670D01*
X222318989Y-132334363D01*
X222526306Y-132263988D01*
X222542227Y-132259722D01*
X222756955Y-132217010D01*
X222773295Y-132214859D01*
X222839858Y-132210496D01*
X222966241Y-132202213D01*
X222974692Y-132201943D01*
X222985812Y-132201963D01*
X222999642Y-132205143D01*
X223013482Y-132202011D01*
X223018372Y-132202020D01*
X223036448Y-132200000D01*
X226962976Y-132200000D01*
X226980182Y-132201953D01*
G37*
%TD.AperFunction*%
%TD*%
%TA.AperFunction,Conductor*%
%TO.N,GND*%
G36*
X216980182Y-132201953D02*
G01*
X216985813Y-132201963D01*
X216999642Y-132205143D01*
X217013483Y-132202011D01*
X217027147Y-132202035D01*
X217035165Y-132202305D01*
X217094838Y-132206216D01*
X217226705Y-132214859D01*
X217243045Y-132217010D01*
X217457773Y-132259722D01*
X217473694Y-132263988D01*
X217681011Y-132334363D01*
X217696237Y-132340670D01*
X217892592Y-132437501D01*
X217906866Y-132445742D01*
X218088901Y-132567374D01*
X218101977Y-132577407D01*
X218266583Y-132721763D01*
X218278237Y-132733417D01*
X218422593Y-132898023D01*
X218432626Y-132911099D01*
X218554258Y-133093134D01*
X218562499Y-133107408D01*
X218659330Y-133303763D01*
X218665637Y-133318989D01*
X218736012Y-133526306D01*
X218740278Y-133542227D01*
X218782990Y-133756955D01*
X218785141Y-133773295D01*
X218797787Y-133966230D01*
X218798057Y-133974692D01*
X218798037Y-133985812D01*
X218794857Y-133999642D01*
X218797989Y-134013482D01*
X218797980Y-134018372D01*
X218800000Y-134036448D01*
X218800000Y-138662708D01*
X218779998Y-138730829D01*
X218770078Y-138744225D01*
X218756754Y-138759930D01*
X218750000Y-138760000D01*
X218710000Y-139940000D01*
X218710000Y-139999679D01*
X218689998Y-140067800D01*
X218636342Y-140114293D01*
X218612229Y-140122476D01*
X218223395Y-140211863D01*
X218214294Y-140213504D01*
X218212161Y-140213644D01*
X218208124Y-140214447D01*
X217933292Y-140269114D01*
X217933286Y-140269116D01*
X217929247Y-140269919D01*
X217925344Y-140271244D01*
X217925340Y-140271245D01*
X217864754Y-140291811D01*
X217864753Y-140291812D01*
X217841957Y-140299550D01*
X217841492Y-140298179D01*
X217839488Y-140298640D01*
X217840020Y-140300208D01*
X217656098Y-140362641D01*
X217533711Y-140422996D01*
X217401093Y-140488395D01*
X217401088Y-140488398D01*
X217397389Y-140490222D01*
X217393956Y-140492516D01*
X217160977Y-140648187D01*
X217160972Y-140648191D01*
X217157546Y-140650480D01*
X217154452Y-140653194D01*
X217154446Y-140653198D01*
X216943762Y-140837964D01*
X216940673Y-140840673D01*
X216937964Y-140843762D01*
X216753198Y-141054446D01*
X216753194Y-141054452D01*
X216750480Y-141057546D01*
X216590222Y-141297389D01*
X216588398Y-141301088D01*
X216588395Y-141301093D01*
X216479140Y-141522641D01*
X216462641Y-141556098D01*
X216461318Y-141559996D01*
X216461317Y-141559998D01*
X216376290Y-141810480D01*
X216369919Y-141829247D01*
X216313644Y-142112161D01*
X216294778Y-142400000D01*
X216313644Y-142687839D01*
X216369919Y-142970753D01*
X216462641Y-143243902D01*
X216590222Y-143502611D01*
X216750480Y-143742454D01*
X216753194Y-143745548D01*
X216753198Y-143745554D01*
X216842900Y-143847839D01*
X216940673Y-143959327D01*
X216943762Y-143962036D01*
X217154446Y-144146802D01*
X217154452Y-144146806D01*
X217157546Y-144149520D01*
X217160972Y-144151809D01*
X217160977Y-144151813D01*
X217340567Y-144271811D01*
X217397389Y-144309778D01*
X217401088Y-144311602D01*
X217401093Y-144311605D01*
X217652403Y-144435537D01*
X217656098Y-144437359D01*
X217659996Y-144438682D01*
X217659998Y-144438683D01*
X217925337Y-144528754D01*
X217925341Y-144528755D01*
X217929247Y-144530081D01*
X217933291Y-144530885D01*
X217933297Y-144530887D01*
X218208112Y-144585551D01*
X218208118Y-144585552D01*
X218212161Y-144586356D01*
X218214695Y-144586522D01*
X218240296Y-144596597D01*
X218249828Y-144598201D01*
X218250000Y-144600000D01*
X218416206Y-144600000D01*
X218424447Y-144600270D01*
X218500000Y-144605222D01*
X218504119Y-144604952D01*
X218575553Y-144600270D01*
X218583794Y-144600000D01*
X219600723Y-144600000D01*
X219668844Y-144620002D01*
X219697793Y-144645667D01*
X219870989Y-144854946D01*
X219899011Y-144920178D01*
X219899919Y-144935503D01*
X219897703Y-146180438D01*
X219877580Y-146248523D01*
X219823841Y-146294921D01*
X219778298Y-146306041D01*
X219733587Y-146308384D01*
X219612662Y-146314722D01*
X219229567Y-146375398D01*
X218854913Y-146475786D01*
X218492806Y-146614786D01*
X218147211Y-146790875D01*
X217821916Y-147002124D01*
X217520484Y-147246219D01*
X217246219Y-147520484D01*
X217002124Y-147821916D01*
X216790875Y-148147211D01*
X216614786Y-148492806D01*
X216553751Y-148651808D01*
X216518311Y-148744133D01*
X216475786Y-148854913D01*
X216375398Y-149229567D01*
X216314722Y-149612662D01*
X216294422Y-150000000D01*
X216314722Y-150387338D01*
X216375398Y-150770433D01*
X216475786Y-151145087D01*
X216614786Y-151507194D01*
X216790875Y-151852789D01*
X217002124Y-152178084D01*
X217246219Y-152479516D01*
X217520484Y-152753781D01*
X217821916Y-152997876D01*
X218147211Y-153209125D01*
X218492806Y-153385214D01*
X218854913Y-153524214D01*
X219229567Y-153624602D01*
X219433201Y-153656854D01*
X219609414Y-153684764D01*
X219609422Y-153684765D01*
X219612662Y-153685278D01*
X220000000Y-153705578D01*
X220387338Y-153685278D01*
X220390578Y-153684765D01*
X220390586Y-153684764D01*
X220566799Y-153656854D01*
X220770433Y-153624602D01*
X221145087Y-153524214D01*
X221507194Y-153385214D01*
X221730247Y-153271563D01*
X221800024Y-153258459D01*
X221865809Y-153285159D01*
X221889985Y-153310602D01*
X224774628Y-157350000D01*
X225299976Y-158085650D01*
X225323286Y-158152709D01*
X225306641Y-158221727D01*
X225268359Y-158263018D01*
X225262208Y-158267207D01*
X225262201Y-158267212D01*
X225255517Y-158271462D01*
X224731825Y-158581805D01*
X224724880Y-158585631D01*
X224182697Y-158862426D01*
X224175531Y-158865805D01*
X223616989Y-159107961D01*
X223609647Y-159110872D01*
X223036987Y-159317417D01*
X223029462Y-159319867D01*
X222791871Y-159389015D01*
X222444960Y-159489980D01*
X222437281Y-159491955D01*
X221843259Y-159624964D01*
X221835470Y-159626453D01*
X221234209Y-159721846D01*
X221226363Y-159722839D01*
X220620318Y-159780223D01*
X220612429Y-159780720D01*
X220227114Y-159792850D01*
X220003964Y-159799874D01*
X219996036Y-159799874D01*
X219772886Y-159792850D01*
X219387571Y-159780720D01*
X219379682Y-159780223D01*
X218773637Y-159722839D01*
X218765791Y-159721846D01*
X218164530Y-159626453D01*
X218156741Y-159624964D01*
X217562719Y-159491955D01*
X217555040Y-159489980D01*
X217208129Y-159389015D01*
X216970538Y-159319867D01*
X216963013Y-159317417D01*
X216390353Y-159110872D01*
X216383011Y-159107961D01*
X215824469Y-158865805D01*
X215817303Y-158862426D01*
X215275120Y-158585631D01*
X215268175Y-158581805D01*
X214744483Y-158271462D01*
X214737792Y-158267207D01*
X214234646Y-157924534D01*
X214228237Y-157919867D01*
X213747652Y-157546237D01*
X213741548Y-157541176D01*
X213285385Y-157138033D01*
X213279620Y-157132604D01*
X212849738Y-156701591D01*
X212844337Y-156695824D01*
X212442398Y-156238606D01*
X212437354Y-156232490D01*
X212064987Y-155750922D01*
X212060337Y-155744501D01*
X211718992Y-155240463D01*
X211714754Y-155233761D01*
X211405780Y-154709238D01*
X211401973Y-154702283D01*
X211126607Y-154159380D01*
X211123245Y-154152200D01*
X210949801Y-153749247D01*
X210882561Y-153593032D01*
X210879671Y-153585688D01*
X210674631Y-153012483D01*
X210672208Y-153004972D01*
X210503622Y-152419991D01*
X210501668Y-152412307D01*
X210435868Y-152114778D01*
X210370218Y-151817924D01*
X210368752Y-151810145D01*
X210321963Y-151510134D01*
X210274946Y-151208669D01*
X210273971Y-151200800D01*
X210218181Y-150594610D01*
X210217703Y-150586696D01*
X210207976Y-150249520D01*
X210200149Y-149978188D01*
X210200170Y-149970269D01*
X210202158Y-149912003D01*
X210220923Y-149361867D01*
X210221443Y-149353957D01*
X210249010Y-149070753D01*
X210280421Y-148748067D01*
X210281433Y-148740235D01*
X210378403Y-148139242D01*
X210379910Y-148131465D01*
X210514488Y-147537760D01*
X210516480Y-147530101D01*
X210688130Y-146946047D01*
X210690604Y-146938515D01*
X210887498Y-146397077D01*
X210897564Y-146377664D01*
X210897052Y-146377388D01*
X210900439Y-146371112D01*
X210904513Y-146365258D01*
X210904780Y-146364593D01*
X210905886Y-146357556D01*
X210907602Y-146351329D01*
X210910380Y-146342521D01*
X210920344Y-146314550D01*
X211010027Y-146062771D01*
X211094079Y-145754465D01*
X211111621Y-145663317D01*
X211154019Y-145443009D01*
X211154019Y-145443006D01*
X211154470Y-145440665D01*
X211190850Y-145123184D01*
X211202135Y-144826877D01*
X211202870Y-144817268D01*
X211203531Y-144811523D01*
X211205142Y-144804574D01*
X211205143Y-144803858D01*
X211203154Y-144795135D01*
X211200000Y-144767121D01*
X211200000Y-134037024D01*
X211201953Y-134019818D01*
X211201963Y-134014187D01*
X211205143Y-134000358D01*
X211202011Y-133986517D01*
X211202035Y-133972853D01*
X211202305Y-133964832D01*
X211214859Y-133773295D01*
X211217010Y-133756955D01*
X211259722Y-133542227D01*
X211263988Y-133526306D01*
X211334363Y-133318989D01*
X211340670Y-133303763D01*
X211437501Y-133107408D01*
X211445742Y-133093134D01*
X211567374Y-132911099D01*
X211577407Y-132898023D01*
X211721763Y-132733417D01*
X211733417Y-132721763D01*
X211898023Y-132577407D01*
X211911099Y-132567374D01*
X212093134Y-132445742D01*
X212107408Y-132437501D01*
X212303763Y-132340670D01*
X212318989Y-132334363D01*
X212526306Y-132263988D01*
X212542227Y-132259722D01*
X212756955Y-132217010D01*
X212773295Y-132214859D01*
X212839858Y-132210496D01*
X212966241Y-132202213D01*
X212974692Y-132201943D01*
X212985812Y-132201963D01*
X212999642Y-132205143D01*
X213013482Y-132202011D01*
X213018372Y-132202020D01*
X213036448Y-132200000D01*
X216962976Y-132200000D01*
X216980182Y-132201953D01*
G37*
%TD.AperFunction*%
%TD*%
M02*
