%TF.GenerationSoftware,KiCad,Pcbnew,(6.0.0)*%
%TF.CreationDate,2022-07-31T16:10:05+12:00*%
%TF.ProjectId,MOTOR_TERMINAL_BREAKOUT_22,4d4f544f-525f-4544-9552-4d494e414c5f,0A*%
%TF.SameCoordinates,Original*%
%TF.FileFunction,Legend,Top*%
%TF.FilePolarity,Positive*%
%FSLAX46Y46*%
G04 Gerber Fmt 4.6, Leading zero omitted, Abs format (unit mm)*
G04 Created by KiCad (PCBNEW (6.0.0)) date 2022-07-31 16:10:05*
%MOMM*%
%LPD*%
G01*
G04 APERTURE LIST*
%ADD10C,0.200000*%
%ADD11C,0.150000*%
G04 APERTURE END LIST*
D10*
X212163809Y-140854095D02*
X212201904Y-140816000D01*
X212278095Y-140777904D01*
X212468571Y-140777904D01*
X212544761Y-140816000D01*
X212582857Y-140854095D01*
X212620952Y-140930285D01*
X212620952Y-141006476D01*
X212582857Y-141120761D01*
X212125714Y-141577904D01*
X212620952Y-141577904D01*
X212925714Y-140854095D02*
X212963809Y-140816000D01*
X213040000Y-140777904D01*
X213230476Y-140777904D01*
X213306666Y-140816000D01*
X213344761Y-140854095D01*
X213382857Y-140930285D01*
X213382857Y-141006476D01*
X213344761Y-141120761D01*
X212887619Y-141577904D01*
X213382857Y-141577904D01*
X213725714Y-141577904D02*
X213725714Y-141044571D01*
X213725714Y-141120761D02*
X213763809Y-141082666D01*
X213840000Y-141044571D01*
X213954285Y-141044571D01*
X214030476Y-141082666D01*
X214068571Y-141158857D01*
X214068571Y-141577904D01*
X214068571Y-141158857D02*
X214106666Y-141082666D01*
X214182857Y-141044571D01*
X214297142Y-141044571D01*
X214373333Y-141082666D01*
X214411428Y-141158857D01*
X214411428Y-141577904D01*
X214792380Y-141577904D02*
X214792380Y-141044571D01*
X214792380Y-141120761D02*
X214830476Y-141082666D01*
X214906666Y-141044571D01*
X215020952Y-141044571D01*
X215097142Y-141082666D01*
X215135238Y-141158857D01*
X215135238Y-141577904D01*
X215135238Y-141158857D02*
X215173333Y-141082666D01*
X215249523Y-141044571D01*
X215363809Y-141044571D01*
X215440000Y-141082666D01*
X215478095Y-141158857D01*
X215478095Y-141577904D01*
X212697142Y-142332571D02*
X212887619Y-142865904D01*
X213078095Y-142332571D01*
X213801904Y-142865904D02*
X213344761Y-142865904D01*
X213573333Y-142865904D02*
X213573333Y-142065904D01*
X213497142Y-142180190D01*
X213420952Y-142256380D01*
X213344761Y-142294476D01*
X214144761Y-142789714D02*
X214182857Y-142827809D01*
X214144761Y-142865904D01*
X214106666Y-142827809D01*
X214144761Y-142789714D01*
X214144761Y-142865904D01*
X214678095Y-142065904D02*
X214754285Y-142065904D01*
X214830476Y-142104000D01*
X214868571Y-142142095D01*
X214906666Y-142218285D01*
X214944761Y-142370666D01*
X214944761Y-142561142D01*
X214906666Y-142713523D01*
X214868571Y-142789714D01*
X214830476Y-142827809D01*
X214754285Y-142865904D01*
X214678095Y-142865904D01*
X214601904Y-142827809D01*
X214563809Y-142789714D01*
X214525714Y-142713523D01*
X214487619Y-142561142D01*
X214487619Y-142370666D01*
X214525714Y-142218285D01*
X214563809Y-142142095D01*
X214601904Y-142104000D01*
X214678095Y-142065904D01*
D11*
%TO.C,C1*%
X220140580Y-145910000D02*
X219859420Y-145910000D01*
X220140580Y-144890000D02*
X219859420Y-144890000D01*
%TD*%
M02*
